<?xml version="1.0" encoding="UTF-8"?>
<svg id="Layer_2" data-name="Layer 2" xmlns="http://www.w3.org/2000/svg" viewBox="0 0 410.47 336.28">
  <defs>
    <style>
      .cls-1 {
        fill: #b7c8e2;
      }

      .cls-2 {
        fill: #28170b;
      }

      .cls-3 {
        fill: #e9c6af;
      }

      .cls-4 {
        fill: #a2b9dd;
      }

      .cls-5 {
        fill: #a4a9c1;
      }

      .cls-6 {
        fill: #5f8dd3;
      }

      .cls-7 {
        fill: #4d4d4d;
      }

      .cls-8 {
        fill: #5d6f88;
      }

      .cls-9 {
        fill: #007171;
      }

      .cls-10 {
        fill: #333;
      }

      .cls-11 {
        fill: #e6e6e6;
      }

      .cls-12 {
        fill: #6c6c7a;
      }

      .cls-13 {
        fill: gray;
      }

      .cls-14 {
        fill: #502d16;
      }

      .cls-15 {
        fill: #6a7c95;
      }

      .cls-16 {
        fill: #87aade;
      }

      .cls-17 {
        fill: #737373;
      }

      .cls-18 {
        fill: #f9f9f9;
      }

      .cls-19 {
        fill: #3771c8;
      }

      .cls-20 {
        fill: #acc3e6;
      }

      .cls-21 {
        fill: #999;
      }

      .cls-22 {
        fill: #ccc;
      }

      .cls-23 {
        fill: #9dafc9;
      }

      .cls-24 {
        fill: #a5bddf;
      }

      .cls-25 {
        fill: #b3b3b3;
      }

      .cls-26 {
        fill: #a9bbd5;
      }

      .cls-27 {
        fill: teal;
      }

      .cls-28 {
        fill: #1a1a1a;
      }

      .cls-29 {
        fill: #90a1bb;
      }

      .cls-30 {
        fill: #afc6e9;
      }

      .cls-31 {
        fill: #7788a2;
      }

      .cls-32 {
        fill: #586175;
      }

      .cls-33 {
        fill: #ececec;
      }

      .cls-34 {
        fill: #666;
      }
    </style>
  </defs>
  <g id="Layer_1-2" data-name="Layer 1">
    <g>
      <path class="cls-30" d="m274.48,336.28H0V106.01s25.27-10.38,42.58-5.19c17.31,5.19,72.69,17.31,88.26,15.58,15.58-1.73,51.92-20.77,77.88,20.77,25.96,41.53,64.03,17.31,55.38,36.34-8.65,19.04-58.84,60.57-38.07,74.42,20.77,13.85,0,13.85,19.04,38.07,19.04,24.23,29.42,50.29,29.42,50.29h0Z"/>
      <path class="cls-16" d="m20.1,130.31c-6.49.02-13.36.25-20.1.83v17.71c13.82-5.37,31.67-11.33,54.69-16.87,0,0-15.71-1.71-34.6-1.66h0Zm93.17,17.23c-2.66-.03-25.48,1.09-74.15,43.27-25.19,21.83-31.64,22.06-39.12,17.11v21.46c7.71-.35,15.15-1.58,21.81-3.95,48.46-17.31,41.53-29.42,91.72-77.88,0,0-.09,0-.27,0h0Zm104.16,53.52c-5.85-.05-26.07,3.33-45.05,48.59-22.5,53.65-12.11,50.19-57.11,62.3-20.28,5.46-20.17,14.78-11.87,24.33h56.46c.16-10.66,1.31-19.2,9.06-15.68,19.04,8.65,8.65-17.31,32.88-45,24.23-27.69-24.23-24.23,17.31-74.42,0,0-.59-.13-1.68-.14h0Zm-99.8,18.48c-14.33-.04-32.56,4.45-50.4,21.48-34.31,32.75-28.22,45.81-67.23,45.53v49.73h41.01c10.05-11.87,17.83-27.42,22.34-36.44,10.38-20.77,38.49-22.48,81.76-74.4,0,0-11.23-5.86-27.47-5.91h0Z"/>
      <path class="cls-27" d="m410.3,34.2s1.51,11.11-4.54,23.73c-6.06,12.62-21.18,50.57-53.52,74.22-100.47,73.46-217.15,120-230,115.36-12.85-4.64-71.05-72.12-73.55-80.33-2.5-8.21-7.85-47.48-6.43-51.77,1.43-4.28,10.35-18.21,14.28-19.64,3.93-1.43,108.54-61.98,208.86-76.04,51.15-7.17,144.9,14.47,144.9,14.47h0Z"/>
      <path class="cls-9" d="m125.81,201.81c-28.54-6.65-70.42-57.05-83.54-86.4-1.43,4.28,3.93,43.56,6.43,51.77,2.5,8.21,60.69,75.69,73.55,80.33l3.57-45.7Z"/>
      <path class="cls-33" d="m410.3,34.2s1.51,11.11-4.54,23.73c-6.06,12.62-48.42,42.61-63.11,49.99-91.55,45.97-203.53,97-216.84,93.9-28.54-6.65-70.42-57.05-83.54-86.4,1.43-4.28,10.35-18.21,14.28-19.64,3.93-1.43,108.54-61.98,208.86-76.04,51.15-7.17,144.9,14.47,144.9,14.47h0Z"/>
      <path class="cls-3" d="m287.62,45.54c-8.5,0-16.53.45-23.73,1.46C163.57,61.06,58.96,121.61,55.03,123.04c-1.45.53-3.59,2.77-5.78,5.6,17.47,29.24,51.96,67.45,76.55,73.17,13.31,3.1,125.29-47.92,216.83-93.9,13.78-6.92,51.93-33.74,61.59-47.46-16.14-3.49-72.56-14.96-116.62-14.92h0Z"/>
      <path class="cls-11" d="m342.24,63.52c-15.5-12.53-25.87-15.14-35.15-17.35-2.22,7.71,9.16,45.28-34.75,65.85l9.6,6c40.87-19.01,67.49-24.65,78.35-30.85-2.95-7.13-9.39-15.32-18.06-23.65h0Z"/>
      <path class="cls-21" d="m255.04,24.01l-17.61,17.59c-1.91,1.91-4.29,7.27-4.29,10.71v21.78l51.73,32.33c36.12-15.39,56.53-17.56,58.53-24.51-8.56-20.66-55.37-53.09-88.37-57.9h0Z"/>
      <path class="cls-25" d="m282.61,117.6c0,5.49-2.79,10.75-7.76,14.62-4.97,3.88-11.71,6.06-18.73,6.06s-13.76-2.18-18.73-6.06c-4.97-3.88-7.76-9.14-7.76-14.62,0-11.42,11.86-20.68,26.49-20.68s26.49,9.26,26.49,20.68h0Z"/>
      <path class="cls-34" d="m233.14,52.31v21.78l51.73,32.33c10.8-4.6,20.18-8.02,28.1-10.74l-79.83-43.38Z"/>
      <path class="cls-17" d="m257.32,30.12l-15.49,15.46,26.15,14.21,18.34-18.31c-9.74-5.07-19.74-9.11-29-11.36h0Z"/>
      <path class="cls-34" d="m257.32,30.12v12.12l18.3,9.94,10.71-10.69c-9.74-5.07-19.73-9.11-29-11.37h0Z"/>
      <path class="cls-28" d="m102.49,221.51l-28.02,12.58v7.07l7.07,7.07,27.85-15v-7.07l-6.89-4.65Z"/>
      <path class="cls-10" d="m74.47,234.09l28.02-12.58,6.89,4.65-27.85,14.99-7.07-7.07Z"/>
      <path class="cls-28" d="m89.31,218.68c-3.48,0-6.31,1.16-6.31,2.59v10.16c0,1.43,2.83,2.59,6.31,2.59s6.31-1.16,6.31-2.59v-10.15h0c0-1.43-2.83-2.59-6.31-2.59h0Z"/>
      <path class="cls-28" d="m42.98,128.98c-6.43,3.57-33.56,22.85-28.92,46.77,4.64,23.92,33.89,44.44,44.63,48.91,14.72,5.76,55.96-1.96,58.23-4.74,2.27-2.78,6.97-15.68-.73-18.35-33.58-11.61-68.17-56.94-73.22-72.59h0Z"/>
      <path class="cls-25" d="m135.86,60.97c-11.6,3.48-31.64,13.64-34.17,15.08-.13,5.82,14.01,22,32.4,39.21v33.29l35.44-22.1c.65-.41,1.09-.9,1.09-1.71v-23.25c0-5.27-3.49-9.35-5.1-10.96l-29.66-29.56Z"/>
      <path class="cls-25" d="m42,132.22c-6.21,3.45-28.14,18.92-23.86,42.08,3.48,18.83,32.53,34.04,43.6,36.03,22.66,4.07,55.8-6.03,51.05-7.93-32.46-11.23-65.9-55.05-70.78-70.18h0Z"/>
      <path class="cls-25" d="m124.96,193.54c-33.53-19.36-88.2-76.3-74.04-90.84,5.35-3.75,20.41-11.45,24.31-12.98-.27,11.77,57.77,65.81,91.3,85.17-22.74,13.35-35.02,22.43-41.57,18.65h0Z"/>
      <path class="cls-22" d="m149.27,180.56c-33.53-19.36-88.2-76.3-74.04-90.84,5.35-3.75,22.55-12.14,26.46-13.67-.27,11.77,57.77,65.81,91.3,85.17-22.74,13.35-37.16,23.13-43.72,19.34h0Z"/>
      <path class="cls-22" d="m235.77,104.35c4.86-4.54,12.17-7.43,20.34-7.43,10.44,0,19.46,4.71,23.78,11.56,5.88,20.97-52.57,17.86-44.12-4.13h0Z"/>
      <path class="cls-18" d="m265.4,19.73c51.15-7.17,144.9,14.47,144.9,14.47,0,0-27.61,50.85-80.02,61.27-79.85,15.88-156.72,82.04-187.88,93.46-1.7.62-4.15-.84,3.82-4.67,34.24-16.44,106.77-75.96,181.95-90.91,45.01-8.95,71.59-47.54,78.26-58.3-13.07-2.88-71.54-15.22-117.99-14.63-7.46.09-14.52.54-20.91,1.44-85.85,12.03-174.85,58.12-201.19,72.06-4.44,2.35-6.72.32-5.24-.47,21.57-11.5,114.67-61.14,204.31-73.71h0Z"/>
      <path class="cls-11" d="m135.86,60.97c-11.6,3.48-31.64,13.64-34.17,15.08-.13,5.82,14.01,22,32.4,39.21,4.33,5.07,23.92-8.79,34.36-16.53,2.17-1.61-.15-5.4-2.94-8.19l-29.66-29.56Z"/>
      <path class="cls-6" d="m144.88,55.49S213.13.52,241.84.81c23.49.24,113.21,40.64,101.56,81.1-9.65-23.27-67.69-61.43-100-58.39-35.23,7.12-68.66,19.86-98.52,31.97h0Z"/>
      <path class="cls-21" d="m219.73,103.39c0,2.39-1.22,4.68-3.38,6.37-2.16,1.69-5.1,2.64-8.16,2.64s-6-.95-8.16-2.64c-2.17-1.69-3.38-3.98-3.38-6.37s1.22-4.68,3.38-6.37c2.16-1.69,5.1-2.64,8.16-2.64s6,.95,8.16,2.64c2.16,1.69,3.38,3.98,3.38,6.37h0Z"/>
      <path class="cls-13" d="m207.65,82.21h1.07c4.2,0,7.59,3.38,7.59,7.59v11.6c0,4.2-3.38,7.59-7.59,7.59h-1.07c-4.2,0-7.59-3.38-7.59-7.59v-11.6c0-4.2,3.38-7.59,7.59-7.59h0Z"/>
      <path class="cls-19" d="m233.89,25.59c-.91-1.39-1.8-2.84-2.68-4.37-3.89-6.74-8.28-11.06-13.11-13.66-31.87,14.62-73.23,47.94-73.23,47.94,27.16-11.01,57.28-22.55,89.02-29.91h0Z"/>
      <path class="cls-25" d="m234.48,75.9c0,5.49-2.79,10.75-7.76,14.62-4.97,3.88-11.71,6.06-18.73,6.06s-13.76-2.18-18.73-6.06c-4.97-3.88-7.76-9.14-7.76-14.62,0-11.42,11.86-20.68,26.49-20.68s26.49,9.26,26.49,20.68h0Z"/>
      <path class="cls-5" d="m307.21,46.2c5.1,1.22,10.54,2.57,16.98,5.63.61-1.36.96-2.73,1-4.15-1.01-.11-2.02-.22-3.04-.31-2.93-.28-5.87-.54-8.8-.76-2.06-.16-4.1-.28-6.15-.4h0Z"/>
      <path class="cls-24" d="m254.65,23.92c16.16,2.27,35.68,11.25,52.44,22.26,2.08.13,4.17.25,6.27.41,2.93.22,5.86.48,8.8.76,3.55.34,7.05.78,10.57,1.19-9.19-10.6-22.72-20.27-36.79-28.1-2.52-.04-5.03-.06-7.5-.03-3.73.05-7.36.18-10.86.42-1.75.12-3.46.26-5.14.43-1.68.17-3.32.37-4.92.59-2.68.38-5.37.79-8.06,1.23-1.61.26-3.21.56-4.82.84h0Z"/>
      <path class="cls-20" d="m254.65,23.92c1.61-.29,3.21-.58,4.82-.84,2.69-.44,5.37-.85,8.06-1.23,1.6-.22,3.24-.42,4.92-.59,1.68-.17,3.39-.31,5.14-.43,3.5-.24,7.13-.37,10.86-.42,2.46-.03,4.97,0,7.5.03-1.31-.73-2.61-1.46-3.93-2.16-.96,0-1.92-.02-2.87-.01-8.5,0-16.53.45-23.73,1.46-7.33,1.03-14.67,2.31-22,3.79,3.48-.33,7.27-.16,11.25.4h0Z"/>
      <path class="cls-22" d="m225.77,80.46c4.35-8.4,15.41-7.54,24.71,1.92,4.47,4.54,7.92,10.5,9.6,16.57,1.68,6.06,1.45,11.74-.64,15.77-2.09,4.03-5.87,6.1-10.5,5.73-4.63-.36-9.75-3.12-14.21-7.66-9.3-9.46-13.31-23.94-8.97-32.34h0Z"/>
      <path class="cls-11" d="m225.77,80.46c4.35-8.4,15.41-7.54,24.71,1.92,9.3,9.46,13.31,23.94,8.97,32.34-1.92,3.7-5.14,5.61-8.95,5.76,8.95-5.76-13.58-46.82-24.73-40.02h0Z"/>
      <path class="cls-22" d="m187.65,62.66c4.86-4.54,12.17-7.43,20.34-7.43,10.44,0,19.46,4.71,23.78,11.56,5.88,20.97-52.57,17.86-44.12-4.13h0Z"/>
      <path class="cls-28" d="m410.3,34.2s1.51,11.11-4.54,23.73c-6.06,12.62-48.42,42.61-63.11,49.99-91.55,45.97-203.53,97-216.84,93.9-28.54-6.65-70.42-57.05-83.54-86.4,1.43-4.28,10.35-18.21,14.28-19.64-14.16,14.54,41.02,74.62,74.55,93.97,17.86,10.31,106.51-75.85,199.18-94.28,52.41-10.42,80.02-61.27,80.02-61.27h0Z"/>
      <path class="cls-2" d="m294.43,54.94c-4.82.08-9.62,1.2-13.27,3.35l-12.61,7.41,4.39,7.56,34.77,18.89,11.93-7.15c1.39-.82,2.51-1.73,3.37-2.69,6.12-6.71.29-16.06-8.55-20.87l-6.64-3.61c-3.73-2.03-8.56-2.99-13.38-2.91h0Z"/>
      <path class="cls-10" d="m297.29,66.24c-2.85-.14-5.6.41-7.42,1.63l-12.01,8.06,23.75,12.9,12-9.55c3.03-2.41,2.28-5.64-2.16-7.78l-7.72-3.71c-1.94-.93-4.22-1.45-6.43-1.56h0Z"/>
      <path class="cls-14" d="m295.64,86.17c-2.57,5.88-8.5,8.96-13.24,6.89-2.27-1-3.97-3.07-4.7-5.77-.73-2.7-.45-5.8.78-8.63,1.24-2.82,3.32-5.13,5.81-6.43,2.48-1.29,5.16-1.46,7.43-.46,4.74,2.07,6.49,8.52,3.92,14.4h0Z"/>
      <path class="cls-7" d="m293.56,85.52c-1.02,2.33-2.75,4.25-4.8,5.31-2.05,1.07-4.26,1.21-6.15.38-3.92-1.72-5.37-7.05-3.24-11.91,2.13-4.86,7.03-7.41,10.95-5.7,1.88.82,3.28,2.54,3.89,4.77.61,2.23.37,4.8-.65,7.14h0Z"/>
      <path class="cls-14" d="m294.43,54.94c-4.82.08-9.62,1.2-13.27,3.35l-12.61,7.41,4.39,7.56,2.22,1.2,10.94-7.69c7.31-4.3,19.2-4.5,26.65-.45l6.64,3.61c.2.11.4.22.59.34.68-3.18-1.17-6.46-5.52-8.82l-6.64-3.61c-3.73-2.03-8.56-2.99-13.38-2.91h0Z"/>
      <path class="cls-22" d="m314.45,61.46s.04.02.05.03c-.02,0-.03-.02-.05-.03h0Zm.05.03c4.32,2.37,6.14,5.63,5.47,8.79-.48,2.26-2.23,4.46-5.27,6.25l-13.6,6.87,4.4,7.56,2.22,1.2,11.93-7.15c1.39-.82,2.51-1.73,3.37-2.69h0c6.11-6.69.31-16.02-8.5-20.84h0Z"/>
      <path class="cls-25" d="m303.31,84.6l13.85-8.28c7.31-4.3,7.2-11.02-.25-15.07l-6.64-3.61c-4.71-2.56-10.07-3.24-15.04-3.17-4.82.07-9.62,1.2-13.27,3.35l-13.41,7.88,2.21,1.2,12.06-8.36c5.06-2.98,12.3-3.94,18.76-2.93,2.26.48,4.38,1.22,6.22,2.23l6.64,3.61c7.45,4.05,7.57,10.77.25,15.07l-13.6,6.87,2.22,1.2Z"/>
      <path class="cls-21" d="m305.49,90.96l2.22,1.2-4.4-7.56-2.22-1.2,4.4,7.56Z"/>
      <path class="cls-13" d="m275.16,74.47l-4.4-7.56-2.21-1.2,4.39,7.56,2.22,1.2Z"/>
      <path class="cls-16" d="m343.4,81.91c4.77-16.55-7.43-33.09-25.12-46.88,31.9,30.4-54.95,36.07-88.65,100.09,70.33-43.11,110.9-43.27,113.77-53.21h0Z"/>
      <path class="cls-28" d="m76.96,228.93c-.69.69-1.02,1.48-.74,1.76l8.42,8.42c.28.28,1.07-.05,1.76-.74.69-.69,1.02-1.48.74-1.76l-8.42-8.42s0,0,0,0c-.28-.28-1.07.05-1.76.74h0Z"/>
      <path class="cls-10" d="m111.03,232.54c-.49-.85-1.17-1.37-1.51-1.17l-17.93,10.35c-.35.2-.23,1.05.26,1.9.49.85,1.17,1.37,1.51,1.17l17.93-10.35s0,0,0,0c.35-.2.23-1.05-.26-1.89h0Z"/>
      <path class="cls-1" d="m324.19,51.83c-.7,1.54-1.75,3.04-3.09,4.54,10.87,8.8,19.16,17.97,22.3,25.55,1.78-6.18,1.19-12.36-1.16-18.39h0c-6.92-5.59-12.81-9.21-18.05-11.7h0Z"/>
      <path class="cls-4" d="m307.15,46.18c4.95,3.26,9.66,6.69,13.97,10.18,1.34-1.5,2.38-3,3.08-4.53-6.47-3.07-11.93-4.42-17.05-5.65h0Z"/>
      <path class="cls-26" d="m250.83,106.88c-3.45,3.42-6.78,7.08-9.91,11.01,3.13,1.99,7.21,3.37,11.56,4.11,9.9-5.31,19.06-9.72,27.44-13.43,0-.03-.01-.06-.02-.09-3.56-5.65-10.32-9.84-18.43-11.14-.5.41-.99.86-1.49,1.27.03.11.09.22.12.33.41,1.46.7,2.92.89,4.34.19,1.42.26,2.82.22,4.16-.02.67-.08,1.33-.16,1.97-.08.64-.2,1.27-.34,1.88-.14.61-.32,1.2-.53,1.77-.21.57-.45,1.12-.72,1.64-.24.46-.5.9-.78,1.3-.28.41-.58.79-.89,1.14-.32.35-.65.67-1,.97-.35.3-.71.56-1.1.8-.38.24-.78.45-1.18.64-.41.18-.83.34-1.26.47-.87.26-1.78.41-2.73.45.28-.18.53-.4.75-.64.22-.25.41-.53.57-.83.16-.31.3-.65.4-1.01.11-.36.19-.76.24-1.17.11-.83.12-1.76.03-2.76-.08-1.01-.26-2.09-.52-3.23-.26-1.14-.6-2.33-1-3.56-.04-.13-.11-.27-.15-.4h0Z"/>
      <path class="cls-1" d="m250.83,106.88c.04.13.11.27.15.4.41,1.23.75,2.43,1,3.56.26,1.14.43,2.22.52,3.23.08,1,.08,1.93-.03,2.76-.05.42-.13.81-.24,1.17-.11.36-.24.7-.4,1.01-.16.31-.35.59-.57.83-.22.25-.47.46-.75.64.95-.04,1.87-.19,2.73-.45.43-.13.86-.29,1.26-.47.41-.18.8-.4,1.18-.64.38-.24.75-.51,1.1-.8.35-.3.68-.62,1-.97.32-.35.61-.73.89-1.14.28-.41.54-.84.78-1.3.27-.53.51-1.07.72-1.64.21-.57.38-1.16.53-1.77.14-.61.26-1.24.34-1.88.08-.64.14-1.3.16-1.97.05-1.34-.03-2.74-.22-4.16-.19-1.42-.49-2.88-.89-4.34-.03-.11-.08-.22-.12-.33-3.11,2.6-6.18,5.33-9.14,8.27h0Z"/>
      <path class="cls-23" d="m240.93,117.89c-2.62,3.29-5.11,6.77-7.41,10.47.78,1,1.67,1.94,2.66,2.82,5.64-3.33,11.07-6.38,16.3-9.19-4.35-.74-8.42-2.12-11.55-4.1h0Z"/>
      <path class="cls-29" d="m312.98,95.72c18.23-6.24,29.03-8.98,30.42-13.8-3.14-7.58-11.43-16.74-22.3-25.54-6.59,7.34-20.41,14.57-35.87,24.24l27.73,15.07s0,.02.01.03h0Z"/>
      <path class="cls-28" d="m241.85,0c-7.44-.08-17.14,3.37-27.62,8.5-10.49,5.14-21.73,12-32.08,18.86-20.69,13.73-37.78,27.49-37.78,27.49-.73.58-.05,1.73.81,1.38,29.84-12.1,63.21-24.81,98.33-31.92,15.79-1.47,38.31,7.21,57.97,19.22,19.67,12.02,36.51,27.43,41.18,38.68.29.7,1.31.64,1.52-.09,3-10.41-.55-20.81-7.78-30.41-7.23-9.6-18.15-18.49-30.16-26.12-12.01-7.63-25.1-13.98-36.68-18.46C257.97,2.67,247.95.06,241.85,0h0Zm-.01,1.62c5.65.06,15.65,2.59,27.14,7.03,11.48,4.43,24.49,10.75,36.4,18.31,11.9,7.56,22.69,16.37,29.74,25.73,6.55,8.69,9.63,17.79,7.81,26.9-5.9-11.69-21.8-25.94-40.59-37.42-19.84-12.12-42.48-21-58.99-19.45-.03,0-.06,0-.08.01-33.42,6.75-64.95,18.58-93.58,30.09,4.9-3.86,16.74-13.06,33.38-24.11,10.31-6.84,21.51-13.67,31.89-18.76,10.39-5.09,19.98-8.41,26.9-8.34h0Z"/>
      <path class="cls-22" d="m177.65,38.76c2.09-4.03,5.87-6.1,10.5-5.73,4.64.36,9.75,3.12,14.21,7.66,4.47,4.54,7.92,10.5,9.6,16.57,1.68,6.06,1.45,11.74-.64,15.77-4.35,8.4-15.41,7.54-24.71-1.92-9.3-9.46-13.31-23.94-8.96-32.34h0Z"/>
      <path class="cls-11" d="m177.65,38.76c4.35-8.4,15.41-7.54,24.71,1.92,9.3,9.46,13.31,23.94,8.96,32.34-1.92,3.7-5.14,5.61-8.95,5.76,8.95-5.76-13.58-46.82-24.73-40.02h0Z"/>
      <path class="cls-8" d="m305.08,68.45c-5.74,3.59-12.31,7.43-19.3,11.79l15.82,8.6,12-9.55c3.03-2.41,2.28-5.64-2.16-7.78l-6.36-3.06Z"/>
      <path class="cls-32" d="m310.15,65.19c-1.6,1.07-3.3,2.16-5.08,3.27l6.36,3.06c2.64,1.27,3.97,2.92,3.99,4.56,2.59-1.7,4.1-3.72,4.55-5.79-.19-.11-.39-.23-.59-.34l-6.64-3.61c-.81-.44-1.69-.81-2.59-1.15h0Zm-6.73,22.21l-1.82,1.45,3.89,2.12h0s-2.07-3.57-2.07-3.57Z"/>
      <path class="cls-12" d="m310.15,65.19c.9.34,1.78.71,2.59,1.15l6.64,3.61c.2.11.4.22.59.34.08-.4.33-.92.69-1.52.26-.44.63-.98.99-1.5-1.79-2.08-4.03-3.98-6.62-5.47-1.47,1.12-3.16,2.26-4.88,3.4h0Z"/>
      <path class="cls-31" d="m312.98,95.72s0-.02-.01-.03l-27.73-15.07c-6.48,4.05-13.21,8.49-19.86,13.62l19.49,12.18c11.05-4.71,20.08-7.95,28.12-10.7h0Z"/>
      <path class="cls-26" d="m315.03,61.79s0,0,0,0c3.94,2.34,5.6,5.46,4.95,8.49-.48,2.26-2.23,4.46-5.27,6.25l-13.6,6.87,4.4,7.56,2.22,1.2,11.93-7.15c1.39-.82,2.51-1.73,3.37-2.69h0c5.99-6.56.54-15.65-7.97-20.54h0Z"/>
      <path class="cls-23" d="m316.21,60.87c-.38.31-.78.61-1.19.92,6.87,4.08,6.79,10.56-.33,14.74l-13.6,6.87,2.22,1.2,13.85-8.28c7.31-4.3,7.2-11.02-.25-15.07l-.7-.38Z"/>
      <path class="cls-29" d="m305.49,90.96l2.22,1.2-4.4-7.56-2.22-1.2,4.4,7.56Z"/>
      <path class="cls-12" d="m295.05,74.58c-5.57,3.35-11.55,6.99-17.66,11.06.41,3.46,2.27,6.21,5,7.42,2.27,1,4.95.83,7.43-.46,2.48-1.29,4.57-3.6,5.81-6.43,1.76-4.03,1.53-8.52-.59-11.59h0Z"/>
      <path class="cls-15" d="m293,75.82c-4.65,2.81-9.54,5.81-14.54,9.11.3,2.93,1.85,5.27,4.16,6.28,3.92,1.72,8.82-.84,10.95-5.7,1.48-3.39,1.26-7.16-.56-9.7h0Z"/>
      <path class="cls-28" d="m318.25,34.23c-.71.03-1.04.9-.52,1.39,3.92,3.73,5.93,7.02,6.49,9.97.57,2.95-.25,5.65-2.25,8.43-4.01,5.56-12.87,11.15-23.83,17.76-21.93,13.21-52.24,30.71-69.22,62.96-.38.73.44,1.49,1.14,1.06,35.11-21.52,62.76-32.31,82.03-38.97,9.63-3.33,17.16-5.62,22.52-7.73,2.68-1.05,4.82-2.06,6.43-3.16,1.61-1.1,2.72-2.33,3.14-3.81,2.45-8.52.52-17.05-4.22-25.11-4.72-8.03-12.24-15.64-21.1-22.55-.01-.01-.02-.02-.03-.03h0s-.04-.03-.06-.05c-.15-.12-.34-.18-.53-.17h0Zm5.92,7.17c5.83,5.27,11.03,10.73,14.39,16.45,4.59,7.8,6.37,15.81,4.06,23.84-.29,1-1.07,1.95-2.5,2.93-1.43.98-3.48,1.95-6.11,2.99-5.25,2.06-12.8,4.37-22.46,7.71-18.79,6.5-45.74,17.12-79.61,37.55,16.96-30.03,45.72-46.86,67.03-59.7,10.97-6.61,19.95-12.15,24.31-18.2,2.18-3.02,3.18-6.25,2.52-9.68-.24-1.27-.94-2.58-1.63-3.89h0Z"/>
      <path class="cls-9" d="m314.51,158.08c-46.56,21.46-128.32,60.11-167.31,84.45,35.36-11.66,101.62-41.93,167.31-84.45h0Z"/>
    </g>
  </g>
</svg>