<?xml version="1.0" encoding="UTF-8"?>
<svg id="Layer_2" data-name="Layer 2" xmlns="http://www.w3.org/2000/svg" viewBox="0 0 234.37 101.31">
  <defs>
    <style>
      .cls-1 {
        fill: #fff;
      }

      .cls-2 {
        letter-spacing: -.06em;
      }

      .cls-3 {
        fill: #082535;
      }

      .cls-4 {
        letter-spacing: -.06em;
      }

      .cls-5 {
        font-family: SofiaPro-Regular, 'Sofia Pro';
        font-size: 13.95px;
      }

      .cls-5, .cls-6 {
        fill: #072535;
        isolation: isolate;
      }

      .cls-7 {
        letter-spacing: -.05em;
      }

      .cls-6 {
        font-family: FredokaOne-Regular, 'Fredoka One';
        font-size: 65.65px;
      }

      .cls-8 {
        letter-spacing: -.08em;
      }

      .cls-9 {
        letter-spacing: -.05em;
      }

      .cls-10 {
        letter-spacing: -.06em;
      }

      .cls-11 {
        letter-spacing: -.05em;
      }

      .cls-12 {
        letter-spacing: -.06em;
      }
    </style>
  </defs>
  <g id="Layer_1-2" data-name="Layer 1">
    <g>
      <path class="cls-3" d="m9.96,82.45c.82-4.74,1.73-10.03,2.57-14.77,1.32-7.42,2.65-14.85,3.96-22.27.93-5.28,1.83-10.57,2.77-15.86.12-.65.08-1.03-.62-1.47-1.81-1.16-1.12-2.96-1.01-4.58.09-1.27,1.15-1.47,2.16-1.61.59-.08,1.02-.24,1.19-.81,1.44-4.82,4.72-8.06,9.62-10.08-.59-1.68-1.18-3.27-.92-5.04C30.18,2.59,33.45-.14,37.02,0c3.91.16,6.87,3,6.93,6.6.02,1.13-.03,2.24-.64,3.24-.47.78-.14,1.2.62,1.53,4.42,1.97,7.4,5.17,8.89,9.62.2.61.56.78,1.14.83,1.46.13,2.1.95,2.2,2.32.07.98-.11,1.92-.2,2.87-.08.87-.93.99-1.73,1.31.64,3.69,1.26,7.37,1.91,11.05,1.45,8.22,2.89,16.44,4.36,24.66,1.04,5.83,2.05,12.19,3.03,18.03"/>
      <path class="cls-3" d="m23.15,50.64c-1.02-.07-1.37.47-1.5,1.36-.28,2-.62,4-.95,5.99-.37,2.21-.38,2.22,2.02,2.22,9.49.01,18.98.02,28.47.01.61,0,1.88.24,1.79-.55-.42-3.67-.76-4.98-1.08-7.58-.16-1.24-.85-1.49-2.05-1.49-8.8.04-17.6.03-26.68.03"/>
      <path class="cls-3" d="m33.8,28.11c-2.17,0-4.34.01-6.51,0-.85,0-1.38.22-1.5,1.16-.31,2.3-.66,4.6-1.09,6.88-.17.92.1,1.2,1.01,1.19,7.41-.01,14.82,0,22.23,0,.87,0,1.26-.31,1.09-1.21-.4-2.09-.87-4.17-1.06-6.28-.14-1.52-.86-1.79-2.25-1.76-3.86.07-7.73.02-11.91.02"/>
      <path class="cls-3" d="m46.21,21.88c-1.31-3.9-6.12-6.7-10.21-6.25-4.27.48-8.13,3.47-8.32,6.25"/>
      <path class="cls-3" d="m37.12,5.12c-1.32-.12-2.14.5-2.36,1.69-.17.95.45,1.64,1.31,2.03,1.09.23,1.82-.11,2.42-.87.73-.93-.08-2.62-1.37-2.85Z"/>
      <path class="cls-1" d="m18.5,75.09c-.59.33-.63,1.13-.72,1.79-.28,1.95-.35,3.98-.78,5.87-.51,2.22.19,2.9,1.62,2.92,3.98.04,32.32-.46,36.97-.36,1.19.03,1.52-.66,1.33-2.06-.26-1.88-.69-3.75-.79-5.65-.13-2.43-1.09-2.79-2.64-2.75-6.14.16-12.28.21-18.42.24-5.45.03-10.9-.02-16.58,0"/>
      <path class="cls-3" d="m0,83.92c7.33-2.94,21.02-3.51,28.53-1.18,2.77.86,5.6,1.51,8.52,1.66,3.14.16,6.06-.74,8.96-1.74,8.01-2.76,15.97-2.54,23.87.41,1.33.5,2.66,1.01,3.99,1.51v6.1c-1.33-.5-2.31-1.02-3.64-1.51-7.91-2.95-15.86-3.17-23.87-.41-2.9,1-5.82,1.9-8.96,1.74-2.92-.15-5.75-.8-8.52-1.66-7.51-2.33-21.55-1.76-28.88,1.18"/>
      <path class="cls-3" d="m0,94.55c7.33-2.94,21.07-3.51,28.59-1.18,2.77.86,5.6,1.51,8.52,1.66,3.14.16,6.06-.74,8.96-1.74,8.01-2.76,15.97-2.54,23.87.41,1.33.5,2.6,1.01,3.93,1.51v6.1c-1.33-.5-2.26-1.02-3.59-1.51-7.91-2.95-15.86-3.17-23.87-.41-2.9,1-5.82,1.9-8.96,1.74-2.92-.15-5.75-.8-8.52-1.66-7.51-2.33-21.6-1.76-28.93,1.18"/>
      <path class="cls-3" d="m9.96,82.45c.82-4.74,1.73-10.03,2.57-14.77,1.32-7.42,2.65-14.85,3.96-22.27.93-5.28,1.83-10.57,2.77-15.86.12-.65.08-1.03-.62-1.47-1.81-1.16-1.12-2.96-1.01-4.58.09-1.27,1.15-1.47,2.16-1.61.59-.08,1.02-.24,1.19-.81,1.44-4.82,4.72-8.06,9.62-10.08-.59-1.68-1.18-3.27-.92-5.04C30.18,2.59,33.45-.14,37.02,0c3.91.16,6.87,3,6.93,6.6.02,1.13-.03,2.24-.64,3.24-.47.78-.14,1.2.62,1.53,4.42,1.97,7.4,5.17,8.89,9.62.2.61.56.78,1.14.83,1.46.13,2.1.95,2.2,2.32.07.98-.11,1.92-.2,2.87-.08.87-.93.99-1.73,1.31.64,3.69,1.26,7.37,1.91,11.05,1.45,8.22,2.89,16.44,4.36,24.66,1.04,5.83,2.05,12.19,3.03,18.03"/>
      <path class="cls-3" d="m23.15,50.64c-1.02-.07-1.37.47-1.5,1.36-.28,2-.62,4-.95,5.99-.37,2.21-.38,2.22,2.02,2.22,9.49.01,18.98.02,28.47.01.61,0,1.88.24,1.79-.55-.42-3.67-.76-4.98-1.08-7.58-.16-1.24-.85-1.49-2.05-1.49-8.8.04-17.6.03-26.68.03"/>
      <path class="cls-3" d="m33.8,28.11c-2.17,0-4.34.01-6.51,0-.85,0-1.38.22-1.5,1.16-.31,2.3-.66,4.6-1.09,6.88-.17.92.1,1.2,1.01,1.19,7.41-.01,14.82,0,22.23,0,.87,0,1.26-.31,1.09-1.21-.4-2.09-.87-4.17-1.06-6.28-.14-1.52-.86-1.79-2.25-1.76-3.86.07-7.73.02-11.91.02"/>
      <path class="cls-3" d="m46.21,21.88c-1.31-3.9-6.12-6.7-10.21-6.25-4.27.48-8.13,3.47-8.32,6.25"/>
      <path class="cls-3" d="m37.12,5.12c-1.32-.12-2.14.5-2.36,1.69-.17.95.45,1.64,1.31,2.03,1.09.23,1.82-.11,2.42-.87.73-.93-.08-2.62-1.37-2.85Z"/>
      <path class="cls-1" d="m18.5,75.09c-.59.33-.63,1.13-.72,1.79-.28,1.95-.35,3.98-.78,5.87-.51,2.22.19,2.9,1.62,2.92,3.98.04,32.32-.46,36.97-.36,1.19.03,1.52-.66,1.33-2.06-.26-1.88-.69-3.75-.79-5.65-.13-2.43-1.09-2.79-2.64-2.75-6.14.16-12.28.21-18.42.24-5.45.03-10.9-.02-16.58,0"/>
      <path class="cls-3" d="m0,83.92c7.33-2.94,21.02-3.51,28.53-1.18,2.77.86,5.6,1.51,8.52,1.66,3.14.16,6.06-.74,8.96-1.74,8.01-2.76,15.97-2.54,23.87.41,1.33.5,2.66,1.01,3.99,1.51v6.1c-1.33-.5-2.31-1.02-3.64-1.51-7.91-2.95-15.86-3.17-23.87-.41-2.9,1-5.82,1.9-8.96,1.74-2.92-.15-5.75-.8-8.52-1.66-7.51-2.33-21.55-1.76-28.88,1.18"/>
      <path class="cls-3" d="m0,94.55c7.33-2.94,21.07-3.51,28.59-1.18,2.77.86,5.6,1.51,8.52,1.66,3.14.16,6.06-.74,8.96-1.74,8.01-2.76,15.97-2.54,23.87.41,1.33.5,2.6,1.01,3.93,1.51v6.1c-1.33-.5-2.26-1.02-3.59-1.51-7.91-2.95-15.86-3.17-23.87-.41-2.9,1-5.82,1.9-8.96,1.74-2.92-.15-5.75-.8-8.52-1.66-7.51-2.33-21.6-1.76-28.93,1.18"/>
      <path class="cls-3" d="m9.96,82.45c.82-4.74,1.73-10.03,2.57-14.77,1.32-7.42,2.65-14.85,3.96-22.27.93-5.28,1.83-10.57,2.77-15.86.12-.65.08-1.03-.62-1.47-1.81-1.16-1.12-2.96-1.01-4.58.09-1.27,1.15-1.47,2.16-1.61.59-.08,1.02-.24,1.19-.81,1.44-4.82,4.72-8.06,9.62-10.08-.59-1.68-1.18-3.27-.92-5.04C30.18,2.59,33.45-.14,37.02,0c3.91.16,6.87,3,6.93,6.6.02,1.13-.03,2.24-.64,3.24-.47.78-.14,1.2.62,1.53,4.42,1.97,7.4,5.17,8.89,9.62.2.61.56.78,1.14.83,1.46.13,2.1.95,2.2,2.32.07.98-.11,1.92-.2,2.87-.08.87-.93.99-1.73,1.31.64,3.69,1.26,7.37,1.91,11.05,1.45,8.22,2.89,16.44,4.36,24.66,1.04,5.83,2.05,12.19,3.03,18.03"/>
      <path class="cls-1" d="m23.15,50.64c-1.02-.07-1.37.47-1.5,1.36-.28,2-.62,4-.95,5.99-.37,2.21-.38,2.22,2.02,2.22,9.49.01,18.98.02,28.47.01.61,0,1.88.24,1.79-.55-.42-3.67-.76-4.98-1.08-7.58-.16-1.24-.85-1.49-2.05-1.49-8.8.04-17.6.03-26.68.03"/>
      <path class="cls-1" d="m33.8,28.11c-2.17,0-4.34.01-6.51,0-.85,0-1.38.22-1.5,1.16-.31,2.3-.66,4.6-1.09,6.88-.17.92.1,1.2,1.01,1.19,7.41-.01,14.82,0,22.23,0,.87,0,1.26-.31,1.09-1.21-.4-2.09-.87-4.17-1.06-6.28-.14-1.52-.86-1.79-2.25-1.76-3.86.07-7.73.02-11.91.02"/>
      <path class="cls-1" d="m46.21,21.88c-1.31-3.9-6.12-6.7-10.21-6.25-4.27.48-8.13,3.47-8.32,6.25"/>
      <path class="cls-1" d="m37.12,5.12c-1.32-.12-2.14.5-2.36,1.69-.17.95.45,1.64,1.31,2.03,1.09.23,1.82-.11,2.42-.87.73-.93-.08-2.62-1.37-2.85Z"/>
      <path class="cls-1" d="m18.5,75.09c-.59.33-.63,1.13-.72,1.79-.28,1.95-.35,3.98-.78,5.87-.51,2.22.19,2.9,1.62,2.92,3.98.04,32.32-.46,36.97-.36,1.19.03,1.52-.66,1.33-2.06-.26-1.88-.69-3.75-.79-5.65-.13-2.43-1.09-2.79-2.64-2.75-6.14.16-12.28.21-18.42.24-5.45.03-10.9-.02-16.58,0"/>
      <path class="cls-3" d="m0,83.92c7.33-2.94,21.02-3.51,28.53-1.18,2.77.86,5.6,1.51,8.52,1.66,3.14.16,6.06-.74,8.96-1.74,8.01-2.76,15.97-2.54,23.87.41,1.33.5,2.66,1.01,3.99,1.51v6.1c-1.33-.5-2.31-1.02-3.64-1.51-7.91-2.95-15.86-3.17-23.87-.41-2.9,1-5.82,1.9-8.96,1.74-2.92-.15-5.75-.8-8.52-1.66-7.51-2.33-21.55-1.76-28.88,1.18"/>
      <path class="cls-3" d="m0,94.55c7.33-2.94,21.07-3.51,28.59-1.18,2.77.86,5.6,1.51,8.52,1.66,3.14.16,6.06-.74,8.96-1.74,8.01-2.76,15.97-2.54,23.87.41,1.33.5,2.6,1.01,3.93,1.51v6.1c-1.33-.5-2.26-1.02-3.59-1.51-7.91-2.95-15.86-3.17-23.87-.41-2.9,1-5.82,1.9-8.96,1.74-2.92-.15-5.75-.8-8.52-1.66-7.51-2.33-21.6-1.76-28.93,1.18"/>
    </g>
    <text class="cls-6" transform="translate(89.48 71.35)"><tspan class="cls-9" x="0" y="0">bu</tspan><tspan class="cls-8" x="72.08" y="0">o</tspan><tspan class="cls-9" x="106.22" y="0">y</tspan></text>
    <text class="cls-5" transform="translate(95.44 85.83)"><tspan class="cls-10" x="0" y="0">w</tspan><tspan class="cls-7" x="10.06" y="0">eb d</tspan><tspan class="cls-12" x="35.56" y="0">e</tspan><tspan class="cls-2" x="42.52" y="0">v</tspan><tspan class="cls-7" x="48.69" y="0">elopme</tspan><tspan class="cls-4" x="92.26" y="0">n</tspan><tspan class="cls-11" x="99.5" y="0">t</tspan></text>
  </g>
</svg>