<?xml version="1.0" encoding="UTF-8"?>
<svg id="Layer_2" data-name="Layer 2" xmlns="http://www.w3.org/2000/svg" viewBox="0 0 212.05 95.28">
  <defs>
  
    <style>
      @import url("https://use.typekit.net/djg7ybd.css");
      .cls-1 {
        letter-spacing: -.06em;
      }

      .cls-2 {
        fill: #2ccab7;
      }

      .cls-3 {
        letter-spacing: -.05em;
      }

      .cls-4 {
        letter-spacing: -.08em;
      }

      .cls-5 {
        font-family: FredokaOne-Regular, 'Fredoka One';
        font-size: 47.35px;
      }

      .cls-5, .cls-6, .cls-7 {
        fill: #072535;
      }

      .cls-8 {
        letter-spacing: -.05em;
      }

      .cls-9 {
        letter-spacing: -.06em;
      }

      .cls-10 {
        letter-spacing: -.05em;
      }

      .cls-11 {
        letter-spacing: -.05em;
      }

      .cls-12 {
        letter-spacing: -.06em;
      }

      .cls-13 {
        letter-spacing: -.06em;
      }

      .cls-14 {
        fill: #072833;
      }

      .cls-7 {
        font-family: "sofia-pro", sans-serif;
        font-style: normal;
        font-size: 10.72px;
      }
    </style>
  </defs>
  <g id="Layer_1-2" data-name="Layer 1">
    <g>
      <path class="cls-6" d="m20.02,66.17c2.93-.94,5.6-2.35,8.59-2.78.49-.07.54-.45.61-.85.6-3.62,1.22-7.23,1.83-10.85.96-5.67,1.94-11.34,2.9-17.01.68-4.04,1.34-8.08,2.03-12.11.08-.5.06-.79-.45-1.13-1.32-.88-.82-2.26-.74-3.5.07-.97.84-1.12,1.58-1.23.43-.06.74-.18.87-.62,1.05-3.68,3.45-6.16,7.03-7.7-.43-1.28-.86-2.5-.67-3.85C43.95,1.98,46.34-.11,48.95,0c2.86.12,5.03,2.29,5.07,5.04.01.86-.02,1.71-.47,2.48-.35.6-.1.91.45,1.17,3.23,1.5,5.41,3.95,6.5,7.35.15.47.41.59.83.63,1.07.1,1.53.72,1.61,1.77.05.75-.08,1.47-.15,2.2-.06.66-.68.76-1.26,1,.47,2.82.92,5.63,1.4,8.44,1.06,6.28,2.12,12.56,3.19,18.84.76,4.45,1.56,8.9,2.28,13.35.13.81.5,1.19,1.2,1.33,1.84.36,3.56,1.04,5.26,1.8,1.25.56,2.55.85,3.94.82,2.71-.06,5.43-.04,8.14,0,.72,0,1.16-.24,1.44-.9.54-1.28,1.25-2.48,1.61-3.84-.38-.4-.83-.23-1.23-.23-4.92-.01-9.85,0-14.77-.01-1.54,0-2.38-.74-2.45-2.04-.07-1.51.66-2.29,2.23-2.29,5.31-.01,10.62,0,15.94,0,1.89,0,1.9,0,2.38-1.86.17-.64.23-1.3.45-1.92.35-1-.06-1.2-.98-1.2-5.85.02-11.71,0-17.56,0-.46,0-.94.02-1.39-.05-1.16-.17-1.79-1-1.75-2.22.04-1.23.72-1.94,1.93-2.05.12-.01.23,0,.35,0,7.56,0,15.12,0,22.68,0,1.55,0,2.12.71,1.91,2.32-.53,4.08-1.35,8.09-2.77,11.95-4.64,12.67-12.57,22.52-24.85,28.52-5.15,2.52-10.61,4.02-16.34,4.62-9.77,1.01-18.96-.81-27.59-5.44-10.32-5.53-17.48-13.93-22.11-24.59C1.94,60.12.57,55.06.03,49.78c-.15-1.46.37-2.17,1.82-2.17,7.64-.02,15.28-.02,22.91,0,1.45,0,2.3.81,2.36,2.16.06,1.17-.8,2.14-2.14,2.28-.88.1-1.78.09-2.67.1-5.7,0-11.39,0-17.24,0,.17,1.45.51,2.89,1.03,4.28.24.64.84.45,1.31.45,5.43.01,10.86,0,16.28.01,1.52,0,2.41.79,2.39,2.08-.02,1.36-.99,2.26-2.55,2.26-4.73.01-9.46,0-14.19,0-.46,0-.91,0-1.55,0,.47,1.78,1.18,3.26,1.99,4.69.22.39.7.27,1.07.27,3.02,0,6.05-.01,9.17-.03m54.6,4.05c-.97-.39-1.94-.78-2.92-1.16-5.78-2.25-11.6-2.42-17.46-.31-2.12.76-4.25,1.45-6.55,1.33-2.14-.12-4.21-.61-6.23-1.27-5.49-1.78-10.98-1.9-16.34.35-2.97,1.24-5.97,1.81-9.15,1.64-1.06-.06-2.14-.15-3.49.15,2.72,4.09,5.95,7.5,9.66,10.41,8.81,6.9,18.87,10.1,30.03,9.23,9.64-.76,18.26-4.27,25.55-10.76,2.91-2.59,5.5-5.45,7.74-9.05-1.58,0-2.77.01-3.96,0-2.24-.03-4.5.22-6.87-.55m-39.34-13.03c-.43.18-.46.61-.53.97-.21,1.06-.25,2.16-.57,3.18-.37,1.21.14,1.58,1.18,1.58,2.91.02,5.65.86,8.35,1.78,2.99,1.01,5.88,1.03,8.83-.13,3.16-1.24,6.45-1.9,9.85-1.85.87.01,1.11-.36.97-1.12-.19-1.02-.5-2.03-.58-3.06-.09-1.32-.79-1.51-1.93-1.49-4.49.09-8.98.12-13.47.13-3.99.02-7.97-.01-12.12,0m3.54-18.5c-.75-.06-1.01.36-1.1,1.04-.2,1.53-.45,3.05-.7,4.58-.27,1.69-.28,1.69,1.48,1.7,6.94,0,13.88.01,20.81,0,.44,0,.93.14,1.35-.28-.03-2-.6-3.94-.84-5.93-.11-.95-.62-1.14-1.5-1.14-6.43.03-12.87.02-19.51.02m7.79-17.21c-1.59,0-3.17.01-4.76,0-.62,0-1.01.17-1.1.88-.22,1.76-.48,3.51-.8,5.26-.13.7.07.91.74.91,5.42,0,10.84,0,16.25,0,.64,0,.92-.24.79-.93-.29-1.59-.64-3.19-.78-4.79-.1-1.16-.63-1.37-1.65-1.35-2.82.05-5.65.02-8.71.02m-2.53-4.75h11.61c-.96-2.98-4.48-5.12-7.47-4.77-3.12.37-5.94,2.51-6.08,4.63.56.22,1.14.1,1.94.14m4.96-12.81c-.97-.1-1.56.38-1.72,1.29-.13.73.33,1.25.96,1.55.78.37,1.33-.08,1.77-.66.54-.71.27-1.35-1-2.18Z"/>
      <path class="cls-14" d="m28.91,23.62c.56,2.03-.21,3.09-2.21,3.11-2.29.03-4.57.05-6.86.03-1.4-.02-2.22-.78-2.29-1.97-.07-1.21.62-2.06,1.83-2.08,2.63-.04,5.27-.01,7.9-.01.68,0,1.18.31,1.62.92Z"/>
      <path class="cls-14" d="m69.34,22.94c.43-.27.82-.25,1.21-.25,2.44,0,4.87-.02,7.31,0,1.19,0,1.99.72,2.07,1.75.07,1.05-.57,2.01-1.69,2.14-2.73.33-5.48.23-8.22.09-.75-.04-1.27-.57-1.48-1.3-.27-.93-.09-1.76.8-2.44Z"/>
      <path class="cls-14" d="m29.49.12c.83-.03,1.33.41,1.78.9,1.23,1.33,2.45,2.68,3.67,4.03.39.44.69.93.75,1.53.09.89-.2,1.61-1,2.04-.77.41-1.56.31-2.13-.31-1.52-1.64-3.07-3.27-4.44-5.04-1.11-1.44-.47-2.81,1.38-3.15Z"/>
      <path class="cls-14" d="m65.13,2.34c.49-.56.89-1.08,1.35-1.54.83-.83,2.06-.89,2.82-.19.73.67.83,1.86.09,2.72-1.41,1.64-2.88,3.23-4.37,4.8-.86.9-1.92.98-2.69.32-.73-.64-.85-1.97-.13-2.85.9-1.11,1.91-2.13,2.92-3.25Z"/>
      <path class="cls-14" d="m25.92,16.91c-1.67-.62-2.33-1.73-2.06-3.36.19-1.2,1.29-2.11,2.65-2.19,1.33-.07,2.64.95,2.95,2.32.44,1.86-1.19,3.4-3.54,3.24Z"/>
      <path class="cls-14" d="m70.01,11.55c1.56-.33,2.74.05,3.38,1.03.67,1.02.64,2.3-.07,3.24-.7.92-2.17,1.36-3.34.97-1.07-.36-1.61-1.13-1.71-2.23-.12-1.37.31-2.42,1.74-3Z"/>
      <path class="cls-2" d="m74.6,70.21c-.97-.39-1.94-.78-2.92-1.16-5.78-2.25-11.6-2.42-17.46-.31-2.12.76-4.25,1.45-6.55,1.33-2.14-.12-4.21-.61-6.23-1.27-5.49-1.78-10.98-1.9-16.34.35-2.97,1.24-5.97,1.81-9.15,1.64-1.06-.06-2.14-.15-3.49.15,2.72,4.09,5.95,7.5,9.66,10.41,8.81,6.9,18.87,10.1,30.03,9.23,9.64-.76,18.26-4.27,25.55-10.76,2.91-2.59,5.5-5.45,7.74-9.05-1.58,0-2.77.01-3.96,0-2.24-.03-4.5.22-6.87-.55"/>
      <path class="cls-6" d="m49.08,78.86c1.95-.23,3.38-1.33,4.89-2.26,4.94-3.03,10.08-3.44,15.43-1.25.68.28,1.32.66,1.77,1.28.55.75.76,1.58.18,2.37-.58.79-1.36,1.26-2.42.96-1.49-.42-2.9-1.05-4.44-1.32-2.52-.43-4.85.05-7.07,1.17-1.03.52-2,1.17-3,1.77-4.57,2.75-9.06,2.47-13.43-.42-2.31-1.53-4.79-2.34-7.55-2.22-1.59.07-3.13.47-4.63.98-1.61.55-2.77.16-3.22-1.05-.46-1.24.29-2.58,1.81-3.15,5.65-2.11,11.04-1.88,16.14,1.63,1.62,1.11,3.41,1.84,5.54,1.5Z"/>
      <text class="cls-5" transform="translate(107.56 62.85)"><tspan class="cls-10" x="0" y="0">bu</tspan><tspan class="cls-4" x="51.99" y="0">o</tspan><tspan class="cls-10" x="76.61" y="0">y</tspan></text>
      <text class="cls-7" transform="translate(109.05 72.67)"><tspan class="cls-13" x="0" y="0">web development</tspan></text>
    </g>
  </g>
</svg>